<mxfile host="Electron" modified="2023-06-20T03:14:34.839Z" agent="Mozilla/5.0 (Windows NT 10.0; Win64; x64) AppleWebKit/537.36 (KHTML, like Gecko) draw.io/21.4.0 Chrome/112.0.5615.204 Electron/24.5.1 Safari/537.36" etag="EOZG8okF3S7wrbDWJwYy" version="21.4.0" type="device">
  <diagram name="Page-1" id="h-OVq6ISAfFkcpHgSUQw">
    <mxGraphModel dx="1036" dy="606" grid="1" gridSize="10" guides="1" tooltips="1" connect="1" arrows="1" fold="1" page="1" pageScale="1" pageWidth="850" pageHeight="1100" math="0" shadow="0">
      <root>
        <mxCell id="0" />
        <mxCell id="1" parent="0" />
        <mxCell id="4jdbok3LHfsiL0BEfTqS-1" value="" style="rounded=0;whiteSpace=wrap;html=1;" parent="1" vertex="1">
          <mxGeometry x="60" y="30" width="650" height="830" as="geometry" />
        </mxCell>
        <mxCell id="4jdbok3LHfsiL0BEfTqS-3" value="" style="rounded=0;whiteSpace=wrap;html=1;" parent="1" vertex="1">
          <mxGeometry x="80" y="50" width="190" height="250" as="geometry" />
        </mxCell>
        <mxCell id="tAGwBN1AlxqGS8MYW4K4-11" value="" style="rounded=0;whiteSpace=wrap;html=1;" parent="1" vertex="1">
          <mxGeometry x="90" y="60" width="170" height="110" as="geometry" />
        </mxCell>
        <mxCell id="tAGwBN1AlxqGS8MYW4K4-12" value="" style="rounded=0;whiteSpace=wrap;html=1;" parent="1" vertex="1">
          <mxGeometry x="90" y="180" width="170" height="20" as="geometry" />
        </mxCell>
        <mxCell id="tAGwBN1AlxqGS8MYW4K4-13" value="" style="rounded=0;whiteSpace=wrap;html=1;" parent="1" vertex="1">
          <mxGeometry x="90" y="210" width="170" height="20" as="geometry" />
        </mxCell>
        <mxCell id="tAGwBN1AlxqGS8MYW4K4-14" value="" style="rounded=0;whiteSpace=wrap;html=1;" parent="1" vertex="1">
          <mxGeometry x="90" y="240" width="170" height="20" as="geometry" />
        </mxCell>
        <mxCell id="tAGwBN1AlxqGS8MYW4K4-15" value="" style="rounded=0;whiteSpace=wrap;html=1;" parent="1" vertex="1">
          <mxGeometry x="90" y="270" width="170" height="20" as="geometry" />
        </mxCell>
        <mxCell id="tAGwBN1AlxqGS8MYW4K4-17" value="" style="rounded=0;whiteSpace=wrap;html=1;" parent="1" vertex="1">
          <mxGeometry x="290" y="50" width="190" height="250" as="geometry" />
        </mxCell>
        <mxCell id="tAGwBN1AlxqGS8MYW4K4-18" value="" style="rounded=0;whiteSpace=wrap;html=1;" parent="1" vertex="1">
          <mxGeometry x="300" y="60" width="170" height="110" as="geometry" />
        </mxCell>
        <mxCell id="tAGwBN1AlxqGS8MYW4K4-19" value="" style="rounded=0;whiteSpace=wrap;html=1;" parent="1" vertex="1">
          <mxGeometry x="300" y="180" width="170" height="20" as="geometry" />
        </mxCell>
        <mxCell id="tAGwBN1AlxqGS8MYW4K4-20" value="" style="rounded=0;whiteSpace=wrap;html=1;" parent="1" vertex="1">
          <mxGeometry x="300" y="210" width="170" height="20" as="geometry" />
        </mxCell>
        <mxCell id="tAGwBN1AlxqGS8MYW4K4-21" value="" style="rounded=0;whiteSpace=wrap;html=1;" parent="1" vertex="1">
          <mxGeometry x="300" y="240" width="170" height="20" as="geometry" />
        </mxCell>
        <mxCell id="tAGwBN1AlxqGS8MYW4K4-22" value="" style="rounded=0;whiteSpace=wrap;html=1;" parent="1" vertex="1">
          <mxGeometry x="300" y="270" width="170" height="20" as="geometry" />
        </mxCell>
        <mxCell id="tAGwBN1AlxqGS8MYW4K4-23" value="" style="rounded=0;whiteSpace=wrap;html=1;" parent="1" vertex="1">
          <mxGeometry x="500" y="50" width="190" height="250" as="geometry" />
        </mxCell>
        <mxCell id="tAGwBN1AlxqGS8MYW4K4-24" value="" style="rounded=0;whiteSpace=wrap;html=1;" parent="1" vertex="1">
          <mxGeometry x="510" y="60" width="170" height="110" as="geometry" />
        </mxCell>
        <mxCell id="tAGwBN1AlxqGS8MYW4K4-25" value="" style="rounded=0;whiteSpace=wrap;html=1;" parent="1" vertex="1">
          <mxGeometry x="510" y="180" width="170" height="20" as="geometry" />
        </mxCell>
        <mxCell id="tAGwBN1AlxqGS8MYW4K4-26" value="" style="rounded=0;whiteSpace=wrap;html=1;" parent="1" vertex="1">
          <mxGeometry x="510" y="210" width="170" height="20" as="geometry" />
        </mxCell>
        <mxCell id="tAGwBN1AlxqGS8MYW4K4-27" value="" style="rounded=0;whiteSpace=wrap;html=1;" parent="1" vertex="1">
          <mxGeometry x="510" y="240" width="170" height="20" as="geometry" />
        </mxCell>
        <mxCell id="tAGwBN1AlxqGS8MYW4K4-28" value="" style="rounded=0;whiteSpace=wrap;html=1;" parent="1" vertex="1">
          <mxGeometry x="510" y="270" width="170" height="20" as="geometry" />
        </mxCell>
        <mxCell id="tAGwBN1AlxqGS8MYW4K4-43" value="" style="rounded=0;whiteSpace=wrap;html=1;" parent="1" vertex="1">
          <mxGeometry x="80" y="320" width="190" height="250" as="geometry" />
        </mxCell>
        <mxCell id="tAGwBN1AlxqGS8MYW4K4-44" value="" style="rounded=0;whiteSpace=wrap;html=1;" parent="1" vertex="1">
          <mxGeometry x="90" y="330" width="170" height="110" as="geometry" />
        </mxCell>
        <mxCell id="tAGwBN1AlxqGS8MYW4K4-45" value="" style="rounded=0;whiteSpace=wrap;html=1;" parent="1" vertex="1">
          <mxGeometry x="90" y="450" width="170" height="20" as="geometry" />
        </mxCell>
        <mxCell id="tAGwBN1AlxqGS8MYW4K4-46" value="" style="rounded=0;whiteSpace=wrap;html=1;" parent="1" vertex="1">
          <mxGeometry x="90" y="480" width="170" height="20" as="geometry" />
        </mxCell>
        <mxCell id="tAGwBN1AlxqGS8MYW4K4-47" value="" style="rounded=0;whiteSpace=wrap;html=1;" parent="1" vertex="1">
          <mxGeometry x="90" y="510" width="170" height="20" as="geometry" />
        </mxCell>
        <mxCell id="tAGwBN1AlxqGS8MYW4K4-48" value="" style="rounded=0;whiteSpace=wrap;html=1;" parent="1" vertex="1">
          <mxGeometry x="90" y="540" width="170" height="20" as="geometry" />
        </mxCell>
        <mxCell id="tAGwBN1AlxqGS8MYW4K4-49" value="" style="rounded=0;whiteSpace=wrap;html=1;" parent="1" vertex="1">
          <mxGeometry x="290" y="320" width="190" height="250" as="geometry" />
        </mxCell>
        <mxCell id="tAGwBN1AlxqGS8MYW4K4-50" value="" style="rounded=0;whiteSpace=wrap;html=1;" parent="1" vertex="1">
          <mxGeometry x="300" y="330" width="170" height="110" as="geometry" />
        </mxCell>
        <mxCell id="tAGwBN1AlxqGS8MYW4K4-51" value="" style="rounded=0;whiteSpace=wrap;html=1;" parent="1" vertex="1">
          <mxGeometry x="300" y="450" width="170" height="20" as="geometry" />
        </mxCell>
        <mxCell id="tAGwBN1AlxqGS8MYW4K4-52" value="" style="rounded=0;whiteSpace=wrap;html=1;" parent="1" vertex="1">
          <mxGeometry x="300" y="480" width="170" height="20" as="geometry" />
        </mxCell>
        <mxCell id="tAGwBN1AlxqGS8MYW4K4-53" value="" style="rounded=0;whiteSpace=wrap;html=1;" parent="1" vertex="1">
          <mxGeometry x="300" y="510" width="170" height="20" as="geometry" />
        </mxCell>
        <mxCell id="tAGwBN1AlxqGS8MYW4K4-54" value="" style="rounded=0;whiteSpace=wrap;html=1;" parent="1" vertex="1">
          <mxGeometry x="300" y="540" width="170" height="20" as="geometry" />
        </mxCell>
        <mxCell id="tAGwBN1AlxqGS8MYW4K4-55" value="" style="rounded=0;whiteSpace=wrap;html=1;" parent="1" vertex="1">
          <mxGeometry x="500" y="320" width="190" height="250" as="geometry" />
        </mxCell>
        <mxCell id="tAGwBN1AlxqGS8MYW4K4-56" value="" style="rounded=0;whiteSpace=wrap;html=1;" parent="1" vertex="1">
          <mxGeometry x="510" y="330" width="170" height="110" as="geometry" />
        </mxCell>
        <mxCell id="tAGwBN1AlxqGS8MYW4K4-57" value="" style="rounded=0;whiteSpace=wrap;html=1;" parent="1" vertex="1">
          <mxGeometry x="510" y="450" width="170" height="20" as="geometry" />
        </mxCell>
        <mxCell id="tAGwBN1AlxqGS8MYW4K4-58" value="" style="rounded=0;whiteSpace=wrap;html=1;" parent="1" vertex="1">
          <mxGeometry x="510" y="480" width="170" height="20" as="geometry" />
        </mxCell>
        <mxCell id="tAGwBN1AlxqGS8MYW4K4-59" value="" style="rounded=0;whiteSpace=wrap;html=1;" parent="1" vertex="1">
          <mxGeometry x="510" y="510" width="170" height="20" as="geometry" />
        </mxCell>
        <mxCell id="tAGwBN1AlxqGS8MYW4K4-60" value="" style="rounded=0;whiteSpace=wrap;html=1;" parent="1" vertex="1">
          <mxGeometry x="510" y="540" width="170" height="20" as="geometry" />
        </mxCell>
        <mxCell id="tAGwBN1AlxqGS8MYW4K4-61" value="" style="rounded=0;whiteSpace=wrap;html=1;" parent="1" vertex="1">
          <mxGeometry x="80" y="590" width="190" height="250" as="geometry" />
        </mxCell>
        <mxCell id="tAGwBN1AlxqGS8MYW4K4-62" value="" style="rounded=0;whiteSpace=wrap;html=1;" parent="1" vertex="1">
          <mxGeometry x="90" y="600" width="170" height="110" as="geometry" />
        </mxCell>
        <mxCell id="tAGwBN1AlxqGS8MYW4K4-63" value="" style="rounded=0;whiteSpace=wrap;html=1;" parent="1" vertex="1">
          <mxGeometry x="90" y="720" width="170" height="20" as="geometry" />
        </mxCell>
        <mxCell id="tAGwBN1AlxqGS8MYW4K4-64" value="" style="rounded=0;whiteSpace=wrap;html=1;" parent="1" vertex="1">
          <mxGeometry x="90" y="750" width="170" height="20" as="geometry" />
        </mxCell>
        <mxCell id="tAGwBN1AlxqGS8MYW4K4-65" value="" style="rounded=0;whiteSpace=wrap;html=1;" parent="1" vertex="1">
          <mxGeometry x="90" y="780" width="170" height="20" as="geometry" />
        </mxCell>
        <mxCell id="tAGwBN1AlxqGS8MYW4K4-66" value="" style="rounded=0;whiteSpace=wrap;html=1;" parent="1" vertex="1">
          <mxGeometry x="90" y="810" width="170" height="20" as="geometry" />
        </mxCell>
        <mxCell id="tAGwBN1AlxqGS8MYW4K4-67" value="" style="rounded=0;whiteSpace=wrap;html=1;" parent="1" vertex="1">
          <mxGeometry x="290" y="590" width="190" height="250" as="geometry" />
        </mxCell>
        <mxCell id="tAGwBN1AlxqGS8MYW4K4-68" value="" style="rounded=0;whiteSpace=wrap;html=1;" parent="1" vertex="1">
          <mxGeometry x="300" y="600" width="170" height="110" as="geometry" />
        </mxCell>
        <mxCell id="tAGwBN1AlxqGS8MYW4K4-69" value="" style="rounded=0;whiteSpace=wrap;html=1;" parent="1" vertex="1">
          <mxGeometry x="300" y="720" width="170" height="20" as="geometry" />
        </mxCell>
        <mxCell id="tAGwBN1AlxqGS8MYW4K4-70" value="" style="rounded=0;whiteSpace=wrap;html=1;" parent="1" vertex="1">
          <mxGeometry x="300" y="750" width="170" height="20" as="geometry" />
        </mxCell>
        <mxCell id="tAGwBN1AlxqGS8MYW4K4-71" value="" style="rounded=0;whiteSpace=wrap;html=1;" parent="1" vertex="1">
          <mxGeometry x="300" y="780" width="170" height="20" as="geometry" />
        </mxCell>
        <mxCell id="tAGwBN1AlxqGS8MYW4K4-72" value="" style="rounded=0;whiteSpace=wrap;html=1;" parent="1" vertex="1">
          <mxGeometry x="300" y="810" width="170" height="20" as="geometry" />
        </mxCell>
        <mxCell id="tAGwBN1AlxqGS8MYW4K4-73" value="" style="rounded=0;whiteSpace=wrap;html=1;" parent="1" vertex="1">
          <mxGeometry x="500" y="590" width="190" height="250" as="geometry" />
        </mxCell>
        <mxCell id="tAGwBN1AlxqGS8MYW4K4-74" value="" style="rounded=0;whiteSpace=wrap;html=1;" parent="1" vertex="1">
          <mxGeometry x="510" y="600" width="170" height="110" as="geometry" />
        </mxCell>
        <mxCell id="tAGwBN1AlxqGS8MYW4K4-75" value="" style="rounded=0;whiteSpace=wrap;html=1;" parent="1" vertex="1">
          <mxGeometry x="510" y="720" width="170" height="20" as="geometry" />
        </mxCell>
        <mxCell id="tAGwBN1AlxqGS8MYW4K4-76" value="" style="rounded=0;whiteSpace=wrap;html=1;" parent="1" vertex="1">
          <mxGeometry x="510" y="750" width="170" height="20" as="geometry" />
        </mxCell>
        <mxCell id="tAGwBN1AlxqGS8MYW4K4-77" value="" style="rounded=0;whiteSpace=wrap;html=1;" parent="1" vertex="1">
          <mxGeometry x="510" y="780" width="170" height="20" as="geometry" />
        </mxCell>
        <mxCell id="tAGwBN1AlxqGS8MYW4K4-78" value="" style="rounded=0;whiteSpace=wrap;html=1;" parent="1" vertex="1">
          <mxGeometry x="510" y="810" width="170" height="20" as="geometry" />
        </mxCell>
        <mxCell id="8iUg8UXSQUCjuFmzCLrc-2" value="single card&lt;br&gt;" style="text;html=1;align=center;verticalAlign=middle;resizable=0;points=[];autosize=1;strokeColor=none;fillColor=none;" vertex="1" parent="1">
          <mxGeometry x="40" y="918" width="80" height="30" as="geometry" />
        </mxCell>
        <mxCell id="8iUg8UXSQUCjuFmzCLrc-3" value="" style="rounded=0;whiteSpace=wrap;html=1;" vertex="1" parent="1">
          <mxGeometry x="40" y="970" width="260" height="410" as="geometry" />
        </mxCell>
        <mxCell id="8iUg8UXSQUCjuFmzCLrc-4" value="Image" style="rounded=0;whiteSpace=wrap;html=1;" vertex="1" parent="1">
          <mxGeometry x="40" y="970" width="260" height="250" as="geometry" />
        </mxCell>
        <mxCell id="8iUg8UXSQUCjuFmzCLrc-5" value="stars" style="rounded=0;whiteSpace=wrap;html=1;" vertex="1" parent="1">
          <mxGeometry x="40" y="1200" width="80" height="20" as="geometry" />
        </mxCell>
        <mxCell id="8iUg8UXSQUCjuFmzCLrc-6" value="Text" style="text;html=1;strokeColor=none;fillColor=none;align=center;verticalAlign=middle;whiteSpace=wrap;rounded=0;" vertex="1" parent="1">
          <mxGeometry x="390" y="1090" width="60" height="30" as="geometry" />
        </mxCell>
        <mxCell id="8iUg8UXSQUCjuFmzCLrc-7" value="Small Desc" style="rounded=0;whiteSpace=wrap;html=1;" vertex="1" parent="1">
          <mxGeometry x="40" y="970" width="110" height="30" as="geometry" />
        </mxCell>
        <mxCell id="8iUg8UXSQUCjuFmzCLrc-9" value="company name" style="rounded=0;whiteSpace=wrap;html=1;" vertex="1" parent="1">
          <mxGeometry x="40" y="1220" width="200" height="30" as="geometry" />
        </mxCell>
        <mxCell id="8iUg8UXSQUCjuFmzCLrc-10" value="Name" style="rounded=0;whiteSpace=wrap;html=1;" vertex="1" parent="1">
          <mxGeometry x="40" y="1250" width="200" height="30" as="geometry" />
        </mxCell>
        <mxCell id="8iUg8UXSQUCjuFmzCLrc-11" value="heart" style="whiteSpace=wrap;html=1;aspect=fixed;" vertex="1" parent="1">
          <mxGeometry x="240" y="1220" width="60" height="60" as="geometry" />
        </mxCell>
        <mxCell id="8iUg8UXSQUCjuFmzCLrc-13" value="Price" style="rounded=0;whiteSpace=wrap;html=1;" vertex="1" parent="1">
          <mxGeometry x="40" y="1280" width="260" height="40" as="geometry" />
        </mxCell>
        <mxCell id="8iUg8UXSQUCjuFmzCLrc-14" value="Special Price" style="rounded=0;whiteSpace=wrap;html=1;" vertex="1" parent="1">
          <mxGeometry x="40" y="1320" width="260" height="30" as="geometry" />
        </mxCell>
        <mxCell id="8iUg8UXSQUCjuFmzCLrc-15" value="100% cotton" style="rounded=0;whiteSpace=wrap;html=1;" vertex="1" parent="1">
          <mxGeometry x="40" y="1350" width="260" height="30" as="geometry" />
        </mxCell>
      </root>
    </mxGraphModel>
  </diagram>
</mxfile>
